<?xml version="1.0" encoding="iso-8859-1"?>
<!-- Generator: Adobe Illustrator 19.0.1, SVG Export Plug-In . SVG Version: 6.00 Build 0)  -->
<!DOCTYPE svg PUBLIC "-//W3C//DTD SVG 1.1//EN" "http://www.w3.org/Graphics/SVG/1.1/DTD/svg11.dtd">
<svg version="1.1" id="Layer_1" xmlns="http://www.w3.org/2000/svg" xmlns:xlink="http://www.w3.org/1999/xlink" x="0px" y="0px"
	 viewBox="-483.971 290.046 767.343 149.356" style="enable-background:new -483.971 290.046 767.343 149.356;"
	 xml:space="preserve">
<g>
	<g>
		<path style="fill:#1ED6C9;" d="M283.37,344.02l-54.64,43.46c-6.49-7.87-27.19-27.55-47.69-27.55h-0.42
			c-13.24,0.17-26.97,9.32-40.8,27.19l-0.02-0.01c-34.04,42.86-69.93,52.13-94.2,52.29h-0.68c-57.78,0-97.92-48.37-102.32-53.91
			l0.03-0.03c-8-8.83-27.33-25.79-46.35-25.53c-13.25,0.17-26.97,9.32-40.81,27.19l-0.02-0.01c-34.04,42.86-69.92,52.13-94.2,52.29
			h-0.68c-57.77,0-97.92-48.37-102.32-53.91l0.13-0.1c-7.93-8.78-27.02-25.53-45.93-25.53c-0.14,0-0.27,0-0.41,0.01
			c-13.24,0.17-26.97,9.32-40.8,27.18l-55.21-42.73c34.49-44.56,71.11-54.11,95.76-54.27h0.67c57.78,0,97.92,48.37,102.33,53.91
			l-0.13,0.1c7.95,8.78,27.01,25.53,45.92,25.53c0.14,0,0.28-0.01,0.42-0.01c13.24-0.17,26.97-9.32,40.8-27.19l0.02,0.02
			c34.03-42.87,69.93-52.14,94.2-52.3h0.68c57.78,0,97.92,48.37,102.32,53.91l-0.04,0.03c7.99,8.82,27.31,25.74,46.37,25.53
			c13.24-0.17,26.97-9.32,40.8-27.19l0.02,0.01c34.04-42.86,69.93-52.13,94.2-52.29h0.68C238.83,290.11,278.97,338.48,283.37,344.02
			z"/>
	</g>
</g>
</svg>
