<svg xmlns="http://www.w3.org/2000/svg" xmlns:xlink="http://www.w3.org/1999/xlink" viewBox="0 0 627.675 201.634"><path fill="#5c8c87" d="M573.425 37.96l-10.7 37.133 4.965 6.848 16.6-31.95z"/><path fill="#a67369" d="M562.2 74.66l-13.62 23.438 3.286 1.907 17.648-21.097zM575.284 122.53L573 152.112l16.195 49.52 4.313-1.243-4.74-48.688 2.3-33.717zM556.148 126.373l-8.25 25.914 4.125 48.53h4.125l5.962-44.833 9.13-29.61z"/><path fill="#1fd6c9" d="M538.125 140.365h71.613L586.656 66.65v-.01l-.854-31.298-11.326-2.798-16.032 60.182z"/><defs><path id="a" d="M0 0h627.675v201.634H0z"/></defs><clipPath id="b"><use xlink:href="#a" overflow="visible"/></clipPath><path d="M568.22 24.118c0 6.836 5.54 12.378 12.377 12.378 6.836 0 12.378-5.542 12.378-12.378s-5.542-12.378-12.378-12.378-12.378 5.542-12.378 12.378" clip-path="url(#b)" fill="#a67369"/><path fill="#38c757" d="M576.6 43.115l-22.42 31.477 2.413 8.107 26.265-24.632z"/><path fill="#a67369" d="M554.18 74.59l-25.982 7.73 1.083 3.643 27.312-3.265z"/><defs><path id="c" d="M0 0h627.675v201.634H0z"/></defs><clipPath id="d"><use xlink:href="#c" overflow="visible"/></clipPath><path d="M570.94 11.53c0 6.37 5.163 11.532 11.532 11.532 6.367 0 11.53-5.162 11.53-11.53C594.003 5.16 588.84 0 582.473 0c-6.37 0-11.53 5.162-11.53 11.53" clip-path="url(#d)" fill="#ff9ca8"/><path d="M563.872 14.31a7.07 7.07 0 1 0 14.14-.002 7.07 7.07 0 0 0-14.14.002M585.077 18.866a8.61 8.61 0 0 0 17.22 0 8.61 8.61 0 0 0-17.22 0" clip-path="url(#d)" fill="#ff9ca8"/><path d="M588.712 28.73a8.61 8.61 0 0 0 17.22 0 8.61 8.61 0 0 0-17.22 0" clip-path="url(#d)" fill="#ff9ca8"/><path d="M585.077 37.342a7.07 7.07 0 1 0 14.14-.002 7.07 7.07 0 0 0-14.14.002" clip-path="url(#d)" fill="#ff9ca8"/><path fill="#ff9ca8" d="M581.99 95.844h45.685v14.517H581.99z"/><path fill="#fcd900" d="M470.794 114.794l-29.88-21.54 4.385-15.99 26.876 28.99z"/><path fill="#e8baa6" d="M492.107 125.396l-20.24-19.447-4.514 6.456 22.727 15.892"/><path fill="#f05970" d="M441.67 153.67l-15.826 47.492 6.75.47 26.436-50.05-9.82-33.596-22.15-1.548z"/><path fill="#f05970" d="M438.872 125.683l-6.906 32.146-35.354 37.483-4.244-4.33 24.004-34.448 6.22-40.41z"/><path fill="#38c757" d="M439.79 69.64l-20.122 53.377 35.073 11.213-.78-63.755z"/><defs><path id="e" d="M0 0h627.675v201.634H0z"/></defs><clipPath id="f"><use xlink:href="#e" overflow="visible"/></clipPath><path d="M462.453 66.35c-2.044 6.686-9.124 10.45-15.81 8.405-6.688-2.046-10.45-9.123-8.407-15.81 2.046-6.688 9.124-10.453 15.81-8.407 6.688 2.046 10.453 9.124 8.407 15.81" clip-path="url(#f)" fill="#e8baa6"/><path fill="#fcd900" d="M445.364 78.662l16.945 35.715-3.88 7.735-22.045-29.51z"/><path fill="#e8baa6" d="M485.157 129.787l-26.922-8.177 3.88-7.733 24.786 12.436"/><defs><path id="g" d="M0 0h627.675v201.634H0z"/></defs><clipPath id="h"><use xlink:href="#g" overflow="visible"/></clipPath><path d="M457.462 51.582a5.34 5.34 0 0 1-6.673 3.546 5.344 5.344 0 1 1 6.673-3.546" clip-path="url(#h)" fill="#1fd6c9"/><path d="M449.327 52.63a5.343 5.343 0 0 1-10.22-3.125 5.342 5.342 0 0 1 10.22 3.125" clip-path="url(#h)" fill="#1fd6c9"/><path d="M443.982 56.927a5.343 5.343 0 0 1-10.22-3.125 5.342 5.342 0 0 1 10.22 3.125M464.14 54.038a5.344 5.344 0 1 1-10.217-3.124 5.344 5.344 0 0 1 10.216 3.124" clip-path="url(#h)" fill="#1fd6c9"/><path fill="#ff9ca8" d="M403.094 90.265h26.432v26.432h-26.432zM287.815 127.19l-9.148 25.912 4.573 48.53h4.575l6.613-44.834 10.12-29.608zM314.288 127.19l-9.146 25.912 4.573 48.53h4.573L320.9 156.8l10.124-29.608z"/><path fill="#fcd900" d="M303.898 60.49l-45.2 25.012 3.14 4.344 36.41-8.11-13.184 45.2 50.852 4.708-4.89-46.77 20.39 25.335 2.584-5.34-31.473-49.83"/><defs><path id="i" d="M0 0h627.675v201.634H0z"/></defs><clipPath id="j"><use xlink:href="#i" overflow="visible"/></clipPath><path d="M300.506 47.64c0 6.835 5.542 12.377 12.378 12.377s12.376-5.542 12.376-12.378c0-6.837-5.54-12.38-12.376-12.38-6.836 0-12.378 5.543-12.378 12.38" clip-path="url(#j)" fill="#e8baa6"/><path d="M298.45 43.245h14.432l11.056 14.03s9.588-7.13 0-19.43c-.287.3-14.386-14.4-25.488 5.4" clip-path="url(#j)" fill="#f05970"/><path d="M320.82 35.337s14.018-13.858 28.42 2.943c0 .3 1.2 5.4 6.6 3.3.3-.3 2.398-2.4 0-3.6 0 .3 7.8.96 4.8 8.73 0 .87-27.44 10.885-39.82-11.373" clip-path="url(#j)" fill="#f05970"/><path fill="#1fd6c9" d="M288.425 89.24l16.986 16.986-16.985 16.986-16.986-16.986z"/><path fill="#17b8f0" d="M164.35 81.398l38.61-1.692 5.49 6.432-34.955 8.645z"/><path fill="#38c757" d="M159.096 148.898l-5.982 51.492 7.848 1.244 15.683-52.558-2.114-31.206-17.504-4.542z"/><path fill="#17b8f0" d="M161.24 55.985l-5.983 63.86 39.288.548-18.954-65.138z"/><path fill="#38c757" d="M177.808 120.28l10.124 32.033 2.818 48.505h8.367l4.574-52.505-9.146-28.034z"/><g><defs><path id="k" d="M0 0h627.675v201.634H0z"/></defs><clipPath id="l"><use xlink:href="#k" overflow="visible"/></clipPath><path d="M181.853 46.823c0 6.836-5.542 12.378-12.378 12.378S157.1 53.66 157.1 46.824c0-6.836 5.54-12.378 12.375-12.378s12.378 5.542 12.378 12.378" clip-path="url(#l)" fill="#a67369"/><path d="M181.853 33.59s-2.837-5.32-12.378-5.516c-9.54-.196-12.692 3.546-14.27 5.515-1.574 1.968-1.574 25.61-1.574 25.61" clip-path="url(#l)" fill="#f05970"/></g><path fill="#17b8f0" d="M169.475 59.2L199.94 82.98v8.458l-32.2-16.12z"/><path fill="#a67369" d="M202.66 79.095l25.976-7.743 1.087 3.64-24.65 12.21z"/><path fill="#a67369" d="M199.94 82.978h27.108v3.8l-27.11 4.658z"/><g><defs><path id="m" d="M0 0h627.675v201.634H0z"/></defs><clipPath id="n"><use xlink:href="#m" overflow="visible"/></clipPath><path d="M156.434 108.378c-11.874 0-21.566-9.334-22.134-21.066h10.425c0 6.466 5.24 11.713 11.71 11.713s11.712-5.247 11.712-11.713h10.42c-.567 11.73-10.26 21.066-22.133 21.066" clip-path="url(#n)" fill="#f05970"/></g><path fill="#1fd6c9" d="M68.72 145.003l-4.195 55.062 5.52 1.568 18.695-55.578-4-33.648-20.197-5.743z"/><path fill="#1fd6c9" d="M30.327 111.2l13.965 34.38 1.612 54.79h9.132l10.206-52.642-6.982-37.064z"/><path fill="#17b8f0" d="M82.35 74.59l-1.06 7.54-3.493-1.495-4.455-3.06-21.795-15.074 3.973-15.727 6.334 6.55L82.06 74.302z"/><path fill="#e8baa6" d="M105.325 88.8l-1.83 2.913-22.205-9.585-3.493-1.494 4.046-6.478.217.145z"/><path fill="#38c757" d="M43.814 44.13L27.45 115.396l63.346-1.056-34.312-72.32z"/><g><defs><path id="o" d="M0 0h627.675v201.634H0z"/></defs><clipPath id="p"><use xlink:href="#o" overflow="visible"/></clipPath><path d="M62.39 33.295c0 6.836-5.543 12.378-12.38 12.378S37.636 40.13 37.636 33.295s5.54-12.378 12.376-12.378 12.38 5.542 12.38 12.378" clip-path="url(#p)" fill="#e8baa6"/></g><path fill="#17b8f0" d="M52.355 58.066l22.42 31.476-2.412 8.107-26.265-24.63z"/><path fill="#e8baa6" d="M74.775 89.542l25.982 7.728-1.083 3.642-27.31-3.263z"/><g><defs><path id="q" d="M0 0h627.675v201.634H0z"/></defs><clipPath id="r"><use xlink:href="#q" overflow="visible"/></clipPath><path d="M63.99 29.026L34.714 32.67c-1-8.087 4.726-15.452 12.814-16.46s15.444 4.73 16.46 12.816" clip-path="url(#r)" fill="#fcd900"/><path d="M36.344 96.58s-8.62-11.883-17.007 0M2.51 96.32s8.618 11.883 17.006 0m16.617 0s8.62 11.883 17.007 0" clip-path="url(#r)" fill="none" stroke="#fcd900" stroke-width="6.199" stroke-miterlimit="10"/></g></svg>