<svg xmlns="http://www.w3.org/2000/svg" viewBox="0 0 155.698 200.543"><path fill="#ef596f" d="M94.95 39.505L0 136.41l132.198 15.864"/><path fill="#1ed6c9" d="M133.083 118.764l10.05 28.465-5.025 53.313h-5.025l-7.264-49.252-11.122-32.526zM104 118.764l10.05 28.465-5.025 53.313H104l-7.264-49.252-11.12-32.526z"/><path fill="#18b8ef" d="M112.283 45.59l32.27-35.272 3.15 4.756-27.605 46.415 16.006 56.995-55.862 5.173 5.373-51.38-22.403 27.83-2.836-5.862 34.573-54.74"/><circle cx="105.544" cy="31.374" r="13.597" fill="#a57468"/><path d="M120.8 33.378l-14.48-6.458-17.37 9.13s-6.428-11.444 8.696-19.495c.153.43 20.878-8.01 23.155 16.823z" fill="#ff9ca8"/><path d="M96.827 17.86s-15.4-15.223-31.22 3.233c0 .33-1.32 5.932-7.252 3.625-.33-.33-2.637-2.637 0-3.955 0 .33-8.57 1.055-5.273 9.59 0 .957 30.142 11.958 43.745-12.493z" fill="#ff9ca8"/><path d="M127.87 101c-13.02 0-23.65-10.236-24.273-23.102h11.433c0 7.093 5.748 12.846 12.84 12.846 7.093 0 12.846-5.753 12.846-12.846h11.428C151.52 90.763 140.892 101 127.87 101z" fill="#fcd900"/><path fill="#a57468" d="M140.768 14.512L153.554 0l2.144 1.89-10.156 16.83zM66.8 96.127L54.016 110.64l-2.144-1.89 10.156-16.83z"/><circle cx="70.957" cy="57.779" r="6.711" fill="#38c656"/><circle cx="58.289" cy="52.639" r="2.385" fill="#ef596f"/></svg>